<svg width="640" height="760" viewBox="0 0 640 760" fill="none" xmlns="http://www.w3.org/2000/svg">
  <rect width="640" height="760" rx="40" fill="#EEF9FF"/>
  <circle cx="490" cy="132" r="110" fill="#D1EEFF"/>
  <circle cx="154" cy="652" r="120" fill="#DDF4FF"/>
  <path d="M165 760C168 592 236 490 320 490C404 490 472 592 475 760H165Z" fill="#0A3F5C"/>
  <circle cx="320" cy="304" r="124" fill="#F4C7A7"/>
  <path d="M198 294C198 205 257 148 325 148C393 148 446 195 446 286V346H198V294Z" fill="#233E57"/>
  <path d="M230 428C260 464 291 480 320 480C349 480 380 464 410 428V498H230V428Z" fill="#E6B48F"/>
  <path d="M216 247C226 201 267 165 318 165C369 165 411 201 425 248C410 207 368 180 318 180C269 180 228 206 216 247Z" fill="#47697E"/>
  <text x="320" y="694" text-anchor="middle" fill="#ffffff" font-family="Arial, sans-serif" font-size="88" font-weight="700">NI</text>
</svg>
