<svg width="640" height="760" viewBox="0 0 640 760" fill="none" xmlns="http://www.w3.org/2000/svg">
  <rect width="640" height="760" rx="40" fill="#EAF8FF"/>
  <circle cx="494" cy="126" r="112" fill="#C6ECFF"/>
  <circle cx="136" cy="672" r="118" fill="#D8F2FF"/>
  <path d="M168 760C170 589 238 484 320 484C402 484 470 589 472 760H168Z" fill="#0F5C85"/>
  <circle cx="320" cy="300" r="124" fill="#F5C7A5"/>
  <path d="M208 286C208 208 258 152 330 152C399 152 446 198 446 278V334H208V286Z" fill="#153B54"/>
  <path d="M226 426C257 463 288 478 320 478C352 478 384 463 414 426V496H226V426Z" fill="#E9B58F"/>
  <path d="M238 229C258 188 302 162 350 162C390 162 424 181 445 212C423 186 387 171 348 171C298 171 255 193 238 229Z" fill="#2D5C78"/>
  <text x="320" y="694" text-anchor="middle" fill="#ffffff" font-family="Arial, sans-serif" font-size="88" font-weight="700">AS</text>
</svg>
