<svg width="640" height="760" viewBox="0 0 640 760" fill="none" xmlns="http://www.w3.org/2000/svg">
  <rect width="640" height="760" rx="40" fill="#EFF9FF"/>
  <circle cx="126" cy="140" r="110" fill="#D7F1FF"/>
  <circle cx="510" cy="646" r="122" fill="#CDEBFB"/>
  <path d="M150 760C153 594 231 488 320 488C409 488 487 594 490 760H150Z" fill="#0A3F5C"/>
  <circle cx="320" cy="302" r="124" fill="#F1C49B"/>
  <path d="M196 295C196 203 255 147 328 147C400 147 448 200 448 286V344H196V295Z" fill="#163547"/>
  <path d="M228 426C255 462 286 478 320 478C354 478 385 462 412 426V498H228V426Z" fill="#DDAA82"/>
  <path d="M222 209C244 183 279 168 322 168C370 168 408 185 430 215C405 187 368 174 324 174C282 174 247 186 222 209Z" fill="#355267"/>
  <text x="320" y="694" text-anchor="middle" fill="#ffffff" font-family="Arial, sans-serif" font-size="88" font-weight="700">VR</text>
</svg>
