<svg width="640" height="760" viewBox="0 0 640 760" fill="none" xmlns="http://www.w3.org/2000/svg">
  <rect width="640" height="760" rx="40" fill="#F2FAFF"/>
  <circle cx="120" cy="142" r="110" fill="#D7F0FF"/>
  <circle cx="518" cy="650" r="124" fill="#C5E7F8"/>
  <path d="M150 760C154 597 232 492 320 492C408 492 486 597 490 760H150Z" fill="#1480B0"/>
  <circle cx="320" cy="300" r="122" fill="#F0C29A"/>
  <path d="M202 292C202 203 258 148 330 148C405 148 448 205 448 285V340H202V292Z" fill="#1A2F3D"/>
  <path d="M226 427C254 463 287 480 320 480C353 480 386 463 414 427V497H226V427Z" fill="#E0AE87"/>
  <path d="M227 203C246 188 279 172 322 172C374 172 413 194 434 226C409 187 370 163 319 163C280 163 248 178 227 203Z" fill="#36566A"/>
  <text x="320" y="694" text-anchor="middle" fill="#ffffff" font-family="Arial, sans-serif" font-size="88" font-weight="700">RM</text>
</svg>
