<svg width="800" height="600" viewBox="0 0 800 600" fill="none" xmlns="http://www.w3.org/2000/svg">
  <rect width="800" height="600" rx="40" fill="#F4FBFF"/>
  <rect width="800" height="600" rx="40" fill="url(#bg)"/>
  <circle cx="669" cy="125" r="116" fill="#7AD3F7" fill-opacity="0.2"/>
  <circle cx="154" cy="491" r="152" fill="#1798CD" fill-opacity="0.14"/>
  <path d="M110 446C200 343 294 263 410 211C494 173 582 154 697 157" stroke="#0F5C85" stroke-width="18" stroke-linecap="round"/>
  <path d="M143 490C235 386 325 314 432 269C514 235 587 224 665 229" stroke="white" stroke-width="12" stroke-linecap="round"/>
  <rect x="82" y="78" width="636" height="444" rx="34" fill="white" fill-opacity="0.38" stroke="white" stroke-opacity="0.5"/>
  <rect x="123" y="121" width="247" height="247" rx="42" fill="#0A3150" fill-opacity="0.9"/>
  <path d="M182 299C218 251 258 216 320 189" stroke="#7AD3F7" stroke-width="18" stroke-linecap="round"/>
  <path d="M199 324C236 277 279 242 335 222" stroke="white" stroke-width="10" stroke-linecap="round"/>
  <circle cx="291" cy="242" r="18" fill="#DFF5FF"/>
  <rect x="429" y="160" width="196" height="20" rx="10" fill="#0F5C85" fill-opacity="0.18"/>
  <rect x="429" y="202" width="143" height="16" rx="8" fill="#0F5C85" fill-opacity="0.12"/>
  <rect x="429" y="238" width="173" height="16" rx="8" fill="#0F5C85" fill-opacity="0.12"/>
  <rect x="429" y="274" width="128" height="16" rx="8" fill="#0F5C85" fill-opacity="0.12"/>
  <rect x="429" y="341" width="118" height="118" rx="32" fill="#1798CD" fill-opacity="0.16"/>
  <path d="M488 373V427" stroke="#0F5C85" stroke-width="11" stroke-linecap="round"/>
  <path d="M461 400H515" stroke="#0F5C85" stroke-width="11" stroke-linecap="round"/>
  <path d="M583 364L603 383L642 343" stroke="#0F5C85" stroke-width="12" stroke-linecap="round" stroke-linejoin="round"/>
  <circle cx="606" cy="392" r="30" fill="white" fill-opacity="0.88"/>
  <path d="M606 375V409" stroke="#1798CD" stroke-width="8" stroke-linecap="round"/>
  <path d="M589 392H623" stroke="#1798CD" stroke-width="8" stroke-linecap="round"/>
  <defs>
    <linearGradient id="bg" x1="86" y1="56" x2="718" y2="555" gradientUnits="userSpaceOnUse">
      <stop stop-color="#F8FCFF"/>
      <stop offset="0.52" stop-color="#E0F4FF"/>
      <stop offset="1" stop-color="#C6EAF9"/>
    </linearGradient>
  </defs>
</svg>
