<svg xmlns="http://www.w3.org/2000/svg" viewBox="0 0 720 980" role="img" aria-labelledby="title desc">
  <title id="title">Materials and Methods poster</title>
  <desc id="desc">Abstract poster with fibre-like curves, layered bands, and subtle process markers.</desc>
  <defs>
    <linearGradient id="bg" x1="0%" y1="0%" x2="100%" y2="100%">
      <stop offset="0%" stop-color="#f3fbff" />
      <stop offset="45%" stop-color="#8edff1" />
      <stop offset="100%" stop-color="#0f6a95" />
    </linearGradient>
  </defs>
  <rect width="720" height="980" fill="url(#bg)" />
  <rect x="54" y="54" width="612" height="872" rx="34" fill="#ffffff" fill-opacity="0.11" stroke="#ffffff" stroke-opacity="0.28" />
  <g fill="none" stroke-linecap="round">
    <path d="M82 214c110-74 202-88 290-42 90 46 170 54 266-18" stroke="#ffffff" stroke-opacity="0.24" stroke-width="44" />
    <path d="M82 318c126-58 214-44 304 6 90 50 164 56 252-16" stroke="#0c4b67" stroke-opacity="0.2" stroke-width="56" />
    <path d="M82 452c132-78 218-84 304-40 84 42 172 52 252-12" stroke="#ffffff" stroke-opacity="0.34" stroke-width="28" />
    <path d="M82 588c118-52 210-44 300 0 84 42 166 48 256-6" stroke="#ffffff" stroke-opacity="0.18" stroke-width="20" />
  </g>
  <g fill="#ffffff" fill-opacity="0.22">
    <circle cx="176" cy="198" r="14" />
    <circle cx="292" cy="364" r="11" />
    <circle cx="484" cy="286" r="16" />
    <circle cx="566" cy="538" r="14" />
    <circle cx="224" cy="646" r="12" />
  </g>
  <g fill="#0b3e59" fill-opacity="0.14">
    <rect x="106" y="742" width="186" height="24" rx="12" />
    <rect x="106" y="784" width="286" height="24" rx="12" />
    <rect x="106" y="826" width="238" height="24" rx="12" />
  </g>
</svg>
