<svg xmlns="http://www.w3.org/2000/svg" viewBox="0 0 720 980" role="img" aria-labelledby="title desc">
  <title id="title">Experimental Platforms poster</title>
  <desc id="desc">Abstract poster with technical grid, connection lines, and layered instrument-like geometry.</desc>
  <defs>
    <linearGradient id="bg" x1="0%" y1="0%" x2="100%" y2="100%">
      <stop offset="0%" stop-color="#0a3551" />
      <stop offset="55%" stop-color="#1592bf" />
      <stop offset="100%" stop-color="#d7f3fb" />
    </linearGradient>
  </defs>
  <rect width="720" height="980" fill="url(#bg)" />
  <g opacity="0.14" stroke="#ffffff" fill="none">
    <path d="M90 116h540" />
    <path d="M90 196h540" />
    <path d="M90 276h540" />
    <path d="M90 356h540" />
    <path d="M90 436h540" />
    <path d="M90 516h540" />
    <path d="M90 596h540" />
    <path d="M90 676h540" />
    <path d="M150 88v624" />
    <path d="M270 88v624" />
    <path d="M390 88v624" />
    <path d="M510 88v624" />
  </g>
  <rect x="54" y="54" width="612" height="872" rx="34" fill="#ffffff" fill-opacity="0.08" stroke="#ffffff" stroke-opacity="0.22" />
  <g fill="#ffffff" fill-opacity="0.14">
    <circle cx="190" cy="180" r="92" />
    <circle cx="538" cy="248" r="118" />
    <circle cx="314" cy="546" r="168" />
  </g>
  <g stroke="#ffffff" stroke-opacity="0.72" stroke-width="5" fill="none" stroke-linecap="round" stroke-linejoin="round">
    <path d="M170 244h280" />
    <path d="M450 244v184" />
    <path d="M450 428H290" />
    <path d="M290 428v122" />
    <path d="M290 550h194" />
    <circle cx="170" cy="244" r="13" fill="#ffffff" />
    <circle cx="450" cy="244" r="13" fill="#ffffff" />
    <circle cx="450" cy="428" r="13" fill="#ffffff" />
    <circle cx="290" cy="428" r="13" fill="#ffffff" />
    <circle cx="290" cy="550" r="13" fill="#ffffff" />
    <circle cx="484" cy="550" r="13" fill="#ffffff" />
  </g>
  <g fill="#ffffff" fill-opacity="0.18">
    <rect x="112" y="752" width="150" height="18" rx="9" />
    <rect x="112" y="786" width="246" height="18" rx="9" />
    <rect x="112" y="820" width="212" height="18" rx="9" />
  </g>
</svg>
