<svg xmlns="http://www.w3.org/2000/svg" viewBox="0 0 720 980" role="img" aria-labelledby="title desc">
  <title id="title">Translational Impact poster</title>
  <desc id="desc">Abstract poster with connected nodes, upward pathways, and soft atmospheric shapes.</desc>
  <defs>
    <linearGradient id="bg" x1="0%" y1="0%" x2="100%" y2="100%">
      <stop offset="0%" stop-color="#0a3149" />
      <stop offset="52%" stop-color="#1799c4" />
      <stop offset="100%" stop-color="#d9f4fb" />
    </linearGradient>
  </defs>
  <rect width="720" height="980" fill="url(#bg)" />
  <rect x="54" y="54" width="612" height="872" rx="34" fill="#ffffff" fill-opacity="0.08" stroke="#ffffff" stroke-opacity="0.24" />
  <g fill="#ffffff" fill-opacity="0.14">
    <circle cx="158" cy="178" r="86" />
    <circle cx="564" cy="220" r="126" />
    <circle cx="360" cy="252" r="154" />
  </g>
  <g fill="none" stroke="#ffffff" stroke-width="5" stroke-linecap="round" stroke-linejoin="round">
    <path d="M136 628c72-10 124-48 174-108 48-56 104-92 172-100 58-8 110 0 166 34" stroke-opacity="0.7" />
    <path d="M136 628 232 746l148-136 120 58 140-168" stroke-opacity="0.34" />
    <path d="M138 520 240 454 324 540 430 448 548 506 636 356" stroke-opacity="0.5" />
  </g>
  <g fill="#ffffff">
    <circle cx="136" cy="628" r="16" />
    <circle cx="310" cy="520" r="15" />
    <circle cx="482" cy="420" r="16" />
    <circle cx="648" cy="454" r="15" />
    <circle cx="138" cy="520" r="16" fill-opacity="0.9" />
    <circle cx="240" cy="454" r="16" fill-opacity="0.9" />
    <circle cx="324" cy="540" r="16" fill-opacity="0.9" />
    <circle cx="430" cy="448" r="16" fill-opacity="0.9" />
    <circle cx="548" cy="506" r="16" fill-opacity="0.9" />
    <circle cx="636" cy="356" r="16" fill-opacity="0.9" />
  </g>
  <g fill="#ffffff" fill-opacity="0.18">
    <rect x="106" y="748" width="154" height="18" rx="9" />
    <rect x="106" y="782" width="260" height="18" rx="9" />
    <rect x="106" y="816" width="220" height="18" rx="9" />
  </g>
</svg>
